<svg t="1681319622943" class="icon" viewBox="0 0 1024 1024" version="1.1" xmlns="http://www.w3.org/2000/svg" p-id="13276" width="200" height="200"><path d="M905.744 776.272H118.256A110.4 110.4 0 0 1 8 666.016V134.384c0-60.8 49.456-110.256 110.256-110.256H905.76a110.4 110.4 0 0 1 110.256 110.256v531.648a110.4 110.4 0 0 1-110.272 110.24zM118.256 55.632a78.848 78.848 0 0 0-78.752 78.752v531.648a78.848 78.848 0 0 0 78.752 78.752H905.76a78.848 78.848 0 0 0 78.752-78.752V134.384a78.848 78.848 0 0 0-78.752-78.752H118.256z" fill="#ffffff" p-id="13277"></path><path d="M905.744 780.272H118.256A114.384 114.384 0 0 1 4 666.016V134.368a114.384 114.384 0 0 1 114.256-114.256H905.76a114.384 114.384 0 0 1 114.256 114.256v531.648c-0.016 62.992-51.264 114.256-114.272 114.256zM118.256 28.128A106.368 106.368 0 0 0 12 134.384v531.648a106.368 106.368 0 0 0 106.256 106.256H905.76a106.368 106.368 0 0 0 106.256-106.256V134.368a106.368 106.368 0 0 0-106.256-106.256H118.256z m787.488 720.64H118.256a82.848 82.848 0 0 1-82.752-82.752V134.368a82.848 82.848 0 0 1 82.752-82.752H905.76a82.848 82.848 0 0 1 82.752 82.752v531.648a82.88 82.88 0 0 1-82.768 82.752zM118.256 59.632a74.832 74.832 0 0 0-74.752 74.752v531.648a74.832 74.832 0 0 0 74.752 74.752H905.76a74.832 74.832 0 0 0 74.752-74.752V134.368a74.832 74.832 0 0 0-74.752-74.752H118.256z" fill="#ffffff" p-id="13278"></path><path d="M511.552 992.144a15.744 15.744 0 0 1-15.744-15.744V764.192a15.744 15.744 0 1 1 31.488 0v212.208a15.712 15.712 0 0 1-15.744 15.744z" fill="#ffffff" p-id="13279"></path><path d="M511.568 996.144a19.76 19.76 0 0 1-19.744-19.744V764.192c0-10.896 8.864-19.744 19.744-19.744s19.744 8.864 19.744 19.744v212.224c0.016 5.248-2.032 10.208-5.76 13.92a19.648 19.648 0 0 1-13.984 5.808z m0-243.712a11.744 11.744 0 0 0-11.744 11.744v212.208a11.76 11.76 0 0 0 23.504 0V764.192a11.792 11.792 0 0 0-11.76-11.76z" fill="#ffffff" p-id="13280"></path><path d="M865.088 999.872H158.032a15.744 15.744 0 1 1 0-31.488h707.056a15.728 15.728 0 1 1 0 31.488z" fill="#ffffff" p-id="13281"></path><path d="M865.072 1003.872H158.032c-10.896 0-19.744-8.864-19.744-19.744s8.864-19.744 19.744-19.744h707.04c10.896 0 19.744 8.864 19.744 19.744s-8.848 19.744-19.744 19.744z m-707.04-31.504a11.744 11.744 0 0 0 0 23.488h707.04a11.744 11.744 0 0 0 0-23.488H158.032z" fill="#ffffff" p-id="13282"></path><path d="M496.352 565.552h-43.952l-37.776-99.184h-131.312l-37.744 99.184H201.6l129.056-335.312h36.64l129.056 335.312z m-96.384-137.52l-51.28-134.112-50.736 134.112h102.016z" fill="#ffffff" p-id="13283"></path><path d="M502.176 569.552h-52.544l-37.76-99.168H286.08l-37.744 99.168h-52.56l132.128-343.312h42.128l132.144 343.312z m-47.04-8h35.376L364.544 234.24h-31.136l-125.984 327.312h35.376l37.744-99.168h136.816l37.776 99.168z m-49.36-129.52H292.16l56.496-149.36 57.12 149.36z m-102.032-8h90.4l-45.44-118.864-44.96 118.864z" fill="#ffffff" p-id="13284"></path><path d="M547.056 230.24h134.672c42.448 0 76.352 14.928 101.728 44.816 25.36 29.872 38.032 69.792 38.032 119.744 0 49.968-12.304 90.928-36.896 122.864-24.624 31.936-59.648 47.888-105.104 47.888H547.04V230.24z m41.136 296.992h90.176c30.8 0 55.504-11.552 74.112-34.656 18.592-23.104 27.888-54.944 27.888-95.52s-9.504-72.048-28.448-94.4c-18.992-22.352-44.624-33.536-76.928-33.536h-86.784v258.112h-0.016z" fill="#ffffff" p-id="13285"></path><path d="M679.504 569.552h-136.432V226.24h138.672c43.488 0 78.736 15.552 104.784 46.224 25.872 30.48 38.992 71.648 38.992 122.336 0 50.64-12.704 92.8-37.728 125.312-25.312 32.8-61.744 49.44-108.288 49.44z m-128.448-8h128.432c43.936 0 78.24-15.6 101.92-46.336 23.936-31.072 36.08-71.584 36.08-120.416 0-48.752-12.464-88.16-37.072-117.168-24.448-28.784-57.664-43.392-98.688-43.392h-130.672v327.312z m127.312-30.32h-90.176v-4h-3.968V265.12h90.784c33.344 0 60.256 11.76 79.968 34.944 19.504 23.04 29.392 55.664 29.392 96.992s-9.68 74.32-28.784 98.032c-19.296 23.984-45.28 36.144-77.216 36.144z m-86.128-8h86.144c29.392 0 53.264-11.152 71.008-33.168 17.904-22.272 27.008-53.568 27.008-93.008 0-39.376-9.248-70.272-27.488-91.824-18.128-21.312-42.992-32.112-73.872-32.112h-82.784v250.112z" fill="#ffffff" p-id="13286"></path></svg>